<svg width="21" height="20" viewBox="0 0 21 20" fill="none" xmlns="http://www.w3.org/2000/svg">
<g clip-path="url(#clip0_495_117)">
<path d="M19.6666 3.33331V8.33332M19.6666 8.33332H14.6666M19.6666 8.33332L15.7999 4.69998C14.9043 3.80391 13.7963 3.14932 12.5792 2.79729C11.3622 2.44527 10.0758 2.40727 8.84016 2.68686C7.60447 2.96645 6.45975 3.55451 5.51281 4.39616C4.56586 5.23782 3.84756 6.30564 3.42492 7.49998M1.33325 16.6666V11.6666M1.33325 11.6666H6.33325M1.33325 11.6666L5.19992 15.3C6.09554 16.1961 7.20356 16.8506 8.42059 17.2027C9.63762 17.5547 10.924 17.5927 12.1597 17.3131C13.3954 17.0335 14.5401 16.4455 15.487 15.6038C16.434 14.7621 17.1523 13.6943 17.5749 12.5" stroke="white" stroke-width="1.67" stroke-linecap="round" stroke-linejoin="round"/>
</g>
<defs>
<clipPath id="clip0_495_117">
<rect width="20" height="20" fill="white" transform="translate(0.5)"/>
</clipPath>
</defs>
</svg>
